<svg width="24" height="24" viewBox="0 0 24 24" fill="none" xmlns="http://www.w3.org/2000/svg">
<g id="money euro">
<path id="primary" d="M14 9.77C13.4509 9.27584 12.7387 9.00167 12 9C11.2044 9 10.4413 9.31607 9.87868 9.87868C9.31607 10.4413 9 11.2044 9 12C9 12.7956 9.31607 13.5587 9.87868 14.1213C10.4413 14.6839 11.2044 15 12 15C12.7387 14.9983 13.4509 14.7242 14 14.23" stroke="white" stroke-width="2" stroke-linecap="round" stroke-linejoin="round"/>
<path id="primary_2" d="M8 12H11H8ZM21 5H3V19H21V5ZM21 5H17C17 6.06087 17.4214 7.07828 18.1716 7.82843C18.9217 8.57857 19.9391 9 21 9V5ZM3 9C4.06087 9 5.07828 8.57857 5.82843 7.82843C6.57857 7.07828 7 6.06087 7 5H3V9ZM21 15C19.9391 15 18.9217 15.4214 18.1716 16.1716C17.4214 16.9217 17 17.9391 17 19H21V15ZM3 19H7C7 17.9391 6.57857 16.9217 5.82843 16.1716C5.07828 15.4214 4.06087 15 3 15V15V19Z" stroke="white" stroke-width="2" stroke-linecap="round" stroke-linejoin="round"/>
</g>
</svg>
