<svg width="114" height="75" viewBox="0 0 114 75" fill="none" xmlns="http://www.w3.org/2000/svg">
<g id="Pattren">
<path id="Vector" d="M28.6 51.1984C26.2356 48.8338 33.5629 41.2872 45.2537 34.695C56.9445 28.1028 81.9598 17.6779 83.9839 20.3428C86.008 23.0076 64.564 37.0822 53.2759 43.6312C41.9878 50.1801 30.9768 53.6144 28.6 51.1984Z" fill="#1053F3"/>
<path id="Vector_2" d="M3.72224 36.9617C2.16111 34.8287 11.4258 28.0029 24.673 22.1084C37.9201 16.2138 65.2623 7.34472 66.4677 9.73146C67.673 12.1182 42.606 24.3424 29.7001 30.2099C16.7942 36.0775 5.23049 39.1632 3.52517 37.0095" fill="#1053F3"/>
<path id="Vector_3" d="M46.1529 64.0822C45.0529 62.4416 54.7165 55.931 68.0021 50.0037C81.2878 44.0765 108.597 34.742 109.423 36.5942C110.249 38.4465 84.5796 50.2165 71.671 56.1853C58.7623 62.1541 47.253 65.7227 46.09 64.1042" fill="#1053F3"/>
</g>
</svg>
