<svg width="103" height="32" viewBox="0 0 9 32" fill="none" xmlns="http://www.w3.org/2000/svg">
<g id="Airbnb Logo" clip-path="url(#clip0_906_175)">
<path id="Vector" d="M-64.4738 22.679C-64.6354 22.289 -64.7868 21.879 -64.9484 21.529L-65.6956 19.859L-65.7259 19.829C-67.9475 15.029 -70.3205 10.149 -72.835 5.34897L-72.9359 5.14897C-73.1884 4.67897 -73.4408 4.15897 -73.7034 3.67897C-74.0265 3.10897 -74.3396 2.49897 -74.8546 1.91897C-75.3566 1.3121 -75.9883 0.823156 -76.7043 0.487423C-77.4203 0.151689 -78.2026 -0.0224609 -78.9948 -0.0224609C-79.7869 -0.0224609 -80.5692 0.151689 -81.2852 0.487423C-82.0012 0.823156 -82.633 1.3121 -83.135 1.91897C-83.6096 2.49897 -83.963 3.10897 -84.2861 3.67897C-84.5386 4.19897 -84.791 4.70897 -85.0536 5.17897L-85.1546 5.37897C-87.6286 10.179 -90.042 15.059 -92.2636 19.859L-92.3242 19.919C-92.5463 20.439 -92.8089 20.979 -93.0613 21.559C-93.2229 21.909 -93.3845 22.289 -93.546 22.709C-93.9822 23.8088 -94.1215 25.0021 -93.9502 26.1715C-93.7788 27.3408 -93.3028 28.4457 -92.5689 29.3774C-91.835 30.309 -90.8687 31.0352 -89.7651 31.4844C-88.6615 31.9336 -87.4588 32.0903 -86.2754 31.939C-85.141 31.7911 -84.0486 31.4169 -83.0643 30.839C-81.7515 30.109 -80.4893 29.049 -79.0755 27.519C-77.6618 29.049 -76.3693 30.109 -75.0868 30.849C-73.8535 31.5658 -72.4569 31.9615 -71.0274 31.999C-69.372 32.0058 -67.77 31.4193 -66.5171 30.3477C-65.2643 29.2761 -64.4453 27.7919 -64.2112 26.169C-63.9408 25.0027 -64.0323 23.7828 -64.4738 22.669V22.679ZM-78.9746 24.339C-80.7114 22.139 -81.8424 20.119 -82.2261 18.389C-82.3851 17.7479 -82.4194 17.0827 -82.3271 16.429C-82.2564 15.919 -82.0646 15.469 -81.802 15.089C-81.1961 14.219 -80.1358 13.679 -78.9746 13.679C-78.4231 13.6623 -77.876 13.7815 -77.3825 14.0258C-76.889 14.2702 -76.4645 14.632 -76.1471 15.079C-75.8846 15.479 -75.6927 15.919 -75.6321 16.429C-75.5311 17.009 -75.5715 17.679 -75.7331 18.389C-76.1168 20.089 -77.2478 22.129 -78.9746 24.339ZM-66.1097 25.819C-66.2244 26.6429 -66.5551 27.4227 -67.0689 28.0807C-67.5828 28.7386 -68.2617 29.2518 -69.0381 29.569C-69.8055 29.889 -70.6538 29.979 -71.4818 29.889C-72.2897 29.789 -73.0975 29.529 -73.9255 29.049C-75.3004 28.2075 -76.5366 27.162 -77.5911 25.949C-75.4705 23.349 -74.1881 20.979 -73.7034 18.869C-73.4711 17.869 -73.4408 16.969 -73.5418 16.139C-73.6679 15.3523 -73.9642 14.6018 -74.4103 13.939C-74.9196 13.2202 -75.5995 12.6364 -76.39 12.2389C-77.1806 11.8413 -78.0578 11.6422 -78.9443 11.659C-80.8124 11.659 -82.4786 12.519 -83.4884 13.929C-83.943 14.5901 -84.2367 15.3466 -84.3467 16.139C-84.478 16.979 -84.4477 17.909 -84.1852 18.869C-83.7004 20.979 -82.3877 23.379 -80.2974 25.969C-81.334 27.2051 -82.5731 28.2598 -83.963 29.089C-84.8011 29.569 -85.5989 29.819 -86.4067 29.919C-87.663 30.0783 -88.9321 29.7402 -89.938 28.9781C-90.944 28.216 -91.6055 27.0914 -91.7789 25.849C-91.8799 25.049 -91.8092 24.249 -91.486 23.349C-91.3851 23.029 -91.2336 22.709 -91.072 22.329C-90.8499 21.809 -90.5873 21.269 -90.3349 20.729L-90.2945 20.659C-88.1133 15.889 -85.7302 11.019 -83.2561 6.24897L-83.1552 6.04897C-82.9027 5.56897 -82.6503 5.05897 -82.3877 4.57897C-82.1252 4.06897 -81.8424 3.57897 -81.4789 3.17897C-81.1642 2.80699 -80.771 2.50784 -80.327 2.30258C-79.883 2.09733 -79.3989 1.99096 -78.9089 1.99096C-78.4189 1.99096 -77.9349 2.09733 -77.4908 2.30258C-77.0468 2.50784 -76.6536 2.80699 -76.339 3.17897C-75.9855 3.57897 -75.6927 4.06897 -75.4302 4.57897C-75.1777 5.05897 -74.9253 5.57897 -74.6627 6.04897L-74.5617 6.24897C-72.0978 11.019 -69.7147 15.889 -67.4931 20.659L-67.4628 20.689C-67.2003 21.209 -66.9781 21.789 -66.7256 22.289C-66.5641 22.679 -66.4025 22.989 -66.3015 23.319C-66.1097 24.219 -66.0087 25.019 -66.1097 25.819ZM-52.0532 24.119C-52.8141 24.13 -53.5678 23.9712 -54.2583 23.6544C-54.9488 23.3376 -55.5584 22.8709 -56.0419 22.289C-57.1284 21.0489 -57.705 19.45 -57.6576 17.809C-57.6742 16.1322 -57.079 14.5058 -55.9813 13.229C-55.4736 12.6396 -54.8416 12.1676 -54.1297 11.8462C-53.4179 11.5249 -52.6436 11.362 -51.8613 11.369C-51.1253 11.349 -50.3961 11.5148 -49.7425 11.8506C-49.089 12.1865 -48.5323 12.6815 -48.1251 13.289L-48.0241 11.719H-45.0755V23.799H-48.0342L-48.1352 22.039C-48.5551 22.6876 -49.1354 23.2192 -49.8212 23.5833C-50.5069 23.9473 -51.2752 24.1317 -52.0532 24.119ZM-51.2857 21.239C-50.7001 21.239 -50.1851 21.079 -49.7004 20.789C-49.256 20.469 -48.8925 20.049 -48.6098 19.539C-48.3573 19.029 -48.226 18.419 -48.226 17.739C-48.1867 17.1484 -48.3028 16.5578 -48.563 16.0249C-48.8232 15.492 -49.2185 15.0352 -49.7104 14.699C-50.1831 14.4073 -50.7289 14.2527 -51.2857 14.2527C-51.8426 14.2527 -52.3884 14.4073 -52.861 14.699C-53.3054 15.019 -53.6689 15.439 -53.9516 15.949C-54.2187 16.5114 -54.35 17.1276 -54.3354 17.749C-54.3747 18.3396 -54.2586 18.9302 -53.9984 19.463C-53.7382 19.9959 -53.3429 20.4528 -52.8509 20.789C-52.3763 21.079 -51.8613 21.239 -51.2857 21.239ZM-40.0264 8.45897C-40.0264 8.80897 -40.087 9.12897 -40.2486 9.38897C-40.4102 9.63897 -40.6323 9.86897 -40.9252 10.029C-41.218 10.189 -41.531 10.249 -41.8542 10.249C-42.1773 10.249 -42.5005 10.189 -42.7933 10.029C-43.0703 9.87628 -43.3032 9.65596 -43.4699 9.38897C-43.6262 9.1041 -43.7029 8.78303 -43.692 8.45897C-43.692 8.09897 -43.6213 7.77897 -43.4699 7.52897C-43.3083 7.22897 -43.076 7.04897 -42.7933 6.88897C-42.5005 6.72897 -42.1874 6.65897 -41.8542 6.65897C-41.5327 6.65163 -41.2149 6.72702 -40.9317 6.87776C-40.6485 7.0285 -40.4096 7.24944 -40.2385 7.51897C-40.0915 7.81052 -40.0187 8.13321 -40.0264 8.45897ZM-43.4598 23.759V11.699H-40.2486V23.779H-43.4699L-43.4598 23.759ZM-31.6653 14.859V14.899C-31.8167 14.829 -32.0187 14.799 -32.1702 14.769C-32.3721 14.729 -32.5337 14.729 -32.7255 14.729C-33.6243 14.729 -34.3008 14.989 -34.7452 15.529C-35.2299 16.079 -35.452 16.849 -35.452 17.839V23.769H-38.6733V11.689H-35.7146L-35.6136 13.519C-35.2905 12.879 -34.9067 12.399 -34.3614 12.039C-33.819 11.6892 -33.1805 11.5145 -32.5337 11.539C-32.3014 11.539 -32.0793 11.559 -31.8874 11.599C-31.7864 11.629 -31.7258 11.629 -31.6653 11.659V14.859ZM-30.3727 23.759V6.73897H-27.1615V13.239C-26.7071 12.659 -26.1921 12.209 -25.5458 11.859C-24.5227 11.3622 -23.3604 11.2213 -22.2465 11.459C-21.1326 11.6966 -20.132 12.299 -19.4062 13.169C-18.3174 14.4116 -17.7406 16.0145 -17.7905 17.659C-17.7739 19.3358 -18.3692 20.9621 -19.4668 22.239C-19.9745 22.8283 -20.6066 23.3003 -21.3184 23.6217C-22.0302 23.9431 -22.8045 24.106 -23.5868 24.099C-24.3229 24.1189 -25.052 23.9532 -25.7056 23.6173C-26.3592 23.2814 -26.9158 22.7865 -27.3231 22.179L-27.4241 23.749L-30.3727 23.779V23.759ZM-24.1624 21.239C-23.5868 21.239 -23.0718 21.079 -22.5871 20.789C-22.1428 20.469 -21.7793 20.049 -21.4965 19.539C-21.234 19.029 -21.1128 18.419 -21.1128 17.739C-21.1128 17.069 -21.234 16.459 -21.4965 15.949C-21.7617 15.4572 -22.1343 15.0302 -22.5871 14.699C-23.0598 14.4073 -23.6055 14.2527 -24.1624 14.2527C-24.7193 14.2527 -25.265 14.4073 -25.7377 14.699C-26.1921 15.019 -26.5455 15.439 -26.8384 15.949C-27.1054 16.5114 -27.2368 17.1276 -27.2221 17.749C-27.2615 18.3396 -27.1454 18.9302 -26.8852 19.463C-26.625 19.9959 -26.2296 20.4528 -25.7377 20.789C-25.2631 21.079 -24.7481 21.239 -24.1624 21.239ZM-16.5788 23.769V11.689H-13.6201L-13.5191 13.259C-13.1473 12.6572 -12.6198 12.1646 -11.9914 11.8324C-11.3629 11.5001 -10.6562 11.3401 -9.94437 11.369C-9.13037 11.355 -8.33029 11.5791 -7.6442 12.0131C-6.95809 12.4471 -6.41642 13.0717 -6.08692 13.809C-5.73349 14.569 -5.54163 15.509 -5.54163 16.559V23.799H-8.76289V16.979C-8.76289 16.139 -8.95477 15.479 -9.33849 14.989C-9.72221 14.509 -10.2473 14.249 -10.9138 14.249C-11.3985 14.249 -11.8226 14.349 -12.1962 14.569C-12.5497 14.799 -12.8425 15.089 -13.0647 15.499C-13.2893 15.9134 -13.4007 16.3788 -13.3878 16.849V23.769H-16.5788ZM-3.93604 23.769V6.72897H-0.714767V13.229C-0.278442 12.6457 0.289154 12.1712 0.942978 11.8432C1.5968 11.5151 2.31885 11.3425 3.0518 11.339C3.81274 11.3279 4.56641 11.4867 5.25691 11.8035C5.94741 12.1203 6.55702 12.587 7.04053 13.169C8.12164 14.4115 8.69437 16.0095 8.64612 17.649C8.66366 19.3259 8.0683 20.9526 6.96984 22.229C6.46211 22.8183 5.83009 23.2903 5.11826 23.6117C4.40643 23.9331 3.63213 24.096 2.84985 24.089C2.11377 24.1089 1.38465 23.9432 0.731056 23.6073C0.0774612 23.2714 -0.479141 22.7765 -0.886429 22.169L-0.97731 23.739L-3.93604 23.769ZM2.30456 21.239C2.89024 21.239 3.40524 21.079 3.87984 20.789C4.33426 20.469 4.68768 20.049 4.98053 19.539C5.23298 19.029 5.36426 18.419 5.36426 17.739C5.40363 17.1484 5.28753 16.5578 5.02734 16.0249C4.76714 15.492 4.37177 15.0352 3.87984 14.699C3.40719 14.4073 2.86145 14.2527 2.30456 14.2527C1.74766 14.2527 1.20191 14.4073 0.729256 14.699C0.284943 15.019 -0.0785828 15.439 -0.361328 15.949C-0.643188 16.5064 -0.775345 17.1263 -0.745056 17.749C-0.784424 18.3396 -0.668327 18.9302 -0.408134 19.463C-0.147949 19.9959 0.247437 20.4528 0.739357 20.789C1.21397 21.079 1.69867 21.239 2.30456 21.239Z" fill="#FF385C"/>
</g>
<defs>
<clipPath id="clip0_906_175">
<rect width="103" height="32" fill="white" transform="translate(-94)"/>
</clipPath>
</defs>
</svg>
