<svg width="95" height="32" viewBox="0 0 95 32" fill="none" xmlns="http://www.w3.org/2000/svg">
<g id="Google Logo" clip-path="url(#clip0_906_22)">
<path id="Vector" d="M40.4273 16.4101C40.4273 20.8518 36.9382 24.1249 32.6562 24.1249C28.3742 24.1249 24.8851 20.8518 24.8851 16.4101C24.8851 11.9371 28.3742 8.69531 32.6562 8.69531C36.9382 8.69531 40.4273 11.9371 40.4273 16.4101ZM37.0255 16.4101C37.0255 13.6344 35.0033 11.7353 32.6562 11.7353C30.3092 11.7353 28.2869 13.6344 28.2869 16.4101C28.2869 19.1579 30.3092 21.0849 32.6562 21.0849C35.0033 21.0849 37.0255 19.1544 37.0255 16.4101Z" fill="#EA4335"/>
<path id="Vector_2" d="M57.1921 16.4101C57.1921 20.8518 53.7029 24.1249 49.4209 24.1249C45.1389 24.1249 41.6498 20.8518 41.6498 16.4101C41.6498 11.9405 45.1389 8.69531 49.4209 8.69531C53.7029 8.69531 57.1921 11.9371 57.1921 16.4101ZM53.7902 16.4101C53.7902 13.6344 51.768 11.7353 49.4209 11.7353C47.0739 11.7353 45.0516 13.6344 45.0516 16.4101C45.0516 19.1579 47.0739 21.0849 49.4209 21.0849C51.768 21.0849 53.7902 19.1544 53.7902 16.4101Z" fill="#FBBC05"/>
<path id="Vector_3" d="M73.2582 9.1614V23.0118C73.2582 28.7092 69.8843 31.0362 65.8957 31.0362C62.1411 31.0362 59.8814 28.5353 59.0292 26.4901L61.9909 25.2623C62.5183 26.5179 63.8106 27.9997 65.8922 27.9997C68.4453 27.9997 70.0275 26.431 70.0275 23.4779V22.3684H69.9088C69.1474 23.304 67.6805 24.1214 65.8294 24.1214C61.956 24.1214 58.4075 20.7614 58.4075 16.4379C58.4075 12.0831 61.956 8.69531 65.8294 8.69531C67.677 8.69531 69.1439 9.5127 69.9088 10.4205H70.0275V9.16488H73.2582V9.1614ZM70.2685 16.4379C70.2685 13.7214 68.4488 11.7353 66.1332 11.7353C63.7862 11.7353 61.8198 13.7214 61.8198 16.4379C61.8198 19.1266 63.7862 21.0849 66.1332 21.0849C68.4488 21.0849 70.2685 19.1266 70.2685 16.4379Z" fill="#4285F4"/>
<path id="Vector_4" d="M78.5845 1.04395V23.6526H75.2665V1.04395H78.5845Z" fill="#34A853"/>
<path id="Vector_5" d="M91.5145 18.9498L94.1549 20.7028C93.3027 21.9585 91.249 24.1219 87.7005 24.1219C83.2998 24.1219 80.0132 20.7341 80.0132 16.4072C80.0132 11.8193 83.3277 8.69238 87.3198 8.69238C91.3398 8.69238 93.3062 11.8785 93.9488 13.6002L94.3016 14.4767L83.9459 18.748C84.7387 20.2959 85.9716 21.0854 87.7005 21.0854C89.4329 21.0854 90.6343 20.2367 91.5145 18.9498ZM83.3871 16.1741L90.3095 13.3115C89.9288 12.348 88.7832 11.6767 87.4351 11.6767C85.7062 11.6767 83.2998 13.1967 83.3871 16.1741Z" fill="#EA4335"/>
<path id="Vector_6" d="M12.3257 14.4031V11.13H23.4009C23.5091 11.7005 23.565 12.3753 23.565 13.1057C23.565 15.5613 22.8909 18.5979 20.7185 20.7613C18.6054 22.9527 15.9056 24.1213 12.3292 24.1213C5.70012 24.1213 0.125854 18.744 0.125854 12.1422C0.125854 5.54048 5.70012 0.163086 12.3292 0.163086C15.9964 0.163086 18.6089 1.59613 20.5718 3.46396L18.2527 5.77352C16.8452 4.45874 14.9382 3.43613 12.3257 3.43613C7.48486 3.43613 3.69883 7.32135 3.69883 12.1422C3.69883 16.9631 7.48486 20.8483 12.3257 20.8483C15.4656 20.8483 17.2538 19.5927 18.3994 18.4518C19.3284 17.5266 19.9396 16.2048 20.1806 14.3996L12.3257 14.4031Z" fill="#4285F4"/>
</g>
<defs>
<clipPath id="clip0_906_22">
<rect width="95" height="32" fill="white"/>
</clipPath>
</defs>
</svg>
