<svg width="98" height="34" viewBox="0 0 98 34" fill="none" xmlns="http://www.w3.org/2000/svg">
<g id="OLA logo" clip-path="url(#clip0_906_154)">
<g id="Group">
<path id="Vector" fill-rule="evenodd" clip-rule="evenodd" d="M86.3761 15.8408L80.1389 26.6751L74.8174 26.6963L86.3761 6.30378L97.8916 26.6963H92.4858L86.3761 15.8397V15.8408ZM69.5812 21.9799H75.5413L72.7741 26.6963H65.0058L65.0268 20.9535V6.42916H69.6033L69.5823 21.9799H69.5812ZM53.2352 6.43022C58.9182 6.45147 63.5157 10.9777 63.4947 16.5728C63.4736 22.1478 58.876 26.6751 53.192 26.6751C47.5301 26.6538 42.9326 22.1276 42.9326 16.5314C42.9537 10.9565 47.5512 6.43022 53.2352 6.43022ZM53.2141 21.9597C56.2574 21.9597 58.7043 19.5489 58.7043 16.5728C58.7264 13.5978 56.2574 11.1658 53.2352 11.1658C50.212 11.1445 47.743 13.5766 47.743 16.5527C47.7219 19.5277 50.1909 21.9597 53.2131 21.9597H53.2141ZM34.4614 14.9632C34.3981 14.1238 34.1842 13.0135 33.8649 11.9457C33.2079 9.74004 32.0657 7.71235 30.5235 6.01372C29.7142 5.13397 28.7995 4.31585 27.4359 3.35216C26.3965 2.83493 25.3745 2.28283 24.3716 1.69678C23.7119 1.3196 22.9237 0.857409 21.8815 0.522722C20.6458 0.228624 19.3827 0.0672867 18.1133 0.0414094C16.8804 -0.00109055 15.6443 0.105159 14.4525 0.334659C13.1964 0.543972 12.1532 0.878659 10.7696 1.21441C7.63993 2.57653 5.21417 4.63035 3.12772 7.35566C-4.15168 17.6035 2.42591 31.96 14.58 33.6568C16.5811 33.9298 18.5822 33.8247 20.4758 33.3848L21.8173 33.0288C21.8594 33.0076 21.9237 32.9863 21.9658 32.9863L23.4991 32.3998C23.5834 32.3573 23.6477 32.3361 23.733 32.2947L24.3716 32.0014C25.5968 31.3917 26.747 30.6393 27.7984 29.7595C26.8413 30.6364 25.8004 31.4155 24.6909 32.0853L24.7541 32.1278C24.968 32.0641 25.1587 32.0014 25.3716 31.96C25.3716 31.96 25.3716 32.2947 25.3295 32.232C24.9891 32.4838 25.5212 32.2532 26.202 31.8962C26.8838 31.5403 27.5434 31.0993 28.1388 30.5968C29.0124 29.8637 29.7784 29.0668 30.8638 27.7684C31.9703 25.8187 33.3549 24.1208 33.9935 21.8365C34.2064 21.2287 34.3971 20.5168 34.5257 19.7827C34.6521 19.0495 34.7385 18.2952 34.7385 17.5195C34.7174 16.7439 34.6321 15.947 34.4614 14.9632ZM18.7097 32.1905C22.4348 31.603 25.5634 29.529 28.1177 26.6995C28.8206 25.6721 29.3738 24.7286 30.0545 23.7022C30.906 21.6059 30.8427 19.7412 31.1188 18.4216C31.4603 16.031 30.651 14.1036 29.9702 12.0498C28.927 9.66022 27.5434 7.87947 25.1166 6.4961C18.9858 2.68172 10.6421 3.74953 6.66204 9.45091C6.64096 9.45091 6.53348 9.59754 6.32062 9.89079C6.59776 8.71779 7.30062 8.0261 8.00243 7.3546C10.0889 5.63653 12.5157 4.27335 15.2829 3.60397C18.4126 3.26822 21.5191 3.60397 24.3073 4.9661C28.4802 7.3546 31.2474 11.1073 31.9492 15.5486V19.6573C31.0767 26.385 25.3295 31.4988 18.7097 32.1905ZM34.0146 16.8905C33.8649 7.04116 24.1377 0.397347 14.6654 1.73928C11.8982 2.42991 8.87494 3.81328 6.72527 5.74172C5.68204 6.43235 5.19309 7.7116 4.14987 8.73797C-0.0230351 14.8792 0.701954 22.7385 5.8949 27.5177C6.56102 28.1817 7.27228 28.798 8.0235 29.3622C3.682 26.741 1.72305 22.7789 1.04232 17.9605C1.04232 16.2413 1.38269 14.5435 1.74413 12.8254C4.172 5.30078 11.8128 -0.168966 20.1365 1.21441C21.5201 1.55016 22.9037 1.9061 24.3094 2.24185C26.0544 2.93247 27.7784 3.95991 29.162 5.3231C30.5456 6.68416 31.5888 8.40329 32.632 10.1001C33.3338 11.4633 33.6753 13.1813 34.0156 14.5435C34.0789 15.3191 34.0789 16.116 34.0156 16.8916L34.0146 16.8905Z" fill="#101010"/>
<path id="Vector_2" fill-rule="evenodd" clip-rule="evenodd" d="M25.3725 17.0384C25.3725 21.2724 21.8392 24.7096 17.4756 24.7096C13.113 24.7096 9.5787 21.2724 9.5787 17.0384C9.5787 12.8054 13.112 9.36816 17.4756 9.36816C21.8392 9.36816 25.3725 12.8054 25.3725 17.0394V17.0384Z" fill="white"/>
<path id="Vector_3" fill-rule="evenodd" clip-rule="evenodd" d="M25.4157 15.7391C25.3093 15.1526 25.1386 14.6915 24.9689 14.0423C24.2871 12.6164 23.2871 11.5061 21.9667 10.5626C17.0288 7.27311 10.2384 10.4372 9.51548 16.0547C9.23939 18.2764 10.0266 20.4141 11.4312 22.0493C11.0055 21.6084 10.5376 21.1483 10.2183 20.6234L10.1762 20.6659C10.2183 20.7913 10.389 20.8752 10.4312 21.0006C10.4312 21.0006 10.2605 21.0006 10.3037 20.9794C10.1762 20.8338 10.2826 21.0644 10.4733 21.3778C10.6441 21.6923 10.8569 21.9866 11.1119 22.2586C11.4744 22.657 11.8569 23.013 12.4955 23.4954C13.4334 23.9767 14.2627 24.6057 15.3481 24.8989C15.6463 24.9839 15.9866 25.0668 16.3281 25.1295C16.6895 25.1932 17.0299 25.2145 17.4134 25.2145C17.7749 25.2145 18.1584 25.172 18.6263 25.087C19.1088 25.0297 19.5857 24.932 20.0521 24.7948C21.0938 24.4786 22.0534 23.9344 22.8624 23.201C23.2671 22.8249 23.8424 22.3426 24.2882 21.7135C24.6507 21.0017 24.6928 20.6447 24.8635 20.3302C25.0332 20.0157 25.2461 19.6597 25.3957 19.1774C25.5177 18.6051 25.5889 18.023 25.6086 17.438C25.5875 16.8515 25.5453 16.2852 25.4168 15.7402L25.4157 15.7391ZM20.3492 11.8419C21.0732 12.2605 21.1796 12.3232 20.796 12.0512C21.3503 12.1765 21.6907 12.491 22.031 12.8055C22.8614 13.749 23.5421 14.8594 23.8825 16.1375C24.0743 17.5836 23.9246 19.0297 23.3082 20.3089C22.2017 22.2575 20.4346 23.557 18.327 23.9129C18.0931 23.9129 17.8381 23.9129 17.6031 23.9342C18.1995 23.829 18.5831 23.4518 19.6685 23.0534C20.8382 22.6347 22.1585 20.6861 22.7982 19.5535C24.6707 16.4722 22.4567 13.6226 20.3492 11.8419ZM16.3481 23.9544C13.113 23.6197 10.6219 20.9581 10.2816 17.8769C10.5787 19.596 11.6009 20.9156 12.9845 22.0897C13.4745 22.4042 14.1973 22.844 14.6873 23.1585C15.5177 23.473 16.0067 23.8088 16.816 23.9554H16.3481V23.9544ZM25.0532 18.3592C24.9057 19.0095 24.7561 19.6374 24.6064 20.2877C24.2871 21.0845 23.8193 21.9016 23.1807 22.5508C22.5421 23.201 21.7328 23.7036 20.9246 24.186C20.286 24.5207 19.4767 24.6885 18.817 24.8554C18.4335 24.8979 17.9867 24.73 17.6031 24.7098C22.3292 24.5834 25.5643 20.1623 24.8625 15.7816C24.5211 14.5034 23.8403 13.392 23.01 12.2817C22.6696 11.7994 22.0089 11.5061 21.52 11.0237C18.561 9.15905 14.6452 9.53624 12.4102 11.9885C12.0968 12.3107 11.8049 12.6536 11.5366 13.0149C12.7295 11.2543 14.6452 10.0186 16.9435 9.66161C17.7527 9.64036 18.5831 9.78805 19.3914 9.93467C22.9678 11.0237 25.6286 14.5034 25.0532 18.3603V18.3592Z" fill="#D7DF23"/>
</g>
</g>
<defs>
<clipPath id="clip0_906_154">
<rect width="98" height="34" fill="white"/>
</clipPath>
</defs>
</svg>
