<svg width="84" height="32" viewBox="0 0 84 32" fill="none" xmlns="http://www.w3.org/2000/svg">
<g id="OYO Logo">
<path id="Vector" d="M69.0639 30.6404C77.0423 30.6404 83.534 24.0436 83.534 15.9364C83.534 7.82442 77.0423 1.23242 69.0639 1.23242C61.0839 1.23242 54.5937 7.82442 54.5937 15.9364C54.5937 24.0436 61.0839 30.6404 69.0639 30.6404ZM69.0639 10.6932C71.9072 10.6932 74.2227 13.0452 74.2227 15.9348C74.2227 18.8244 71.9056 21.1732 69.0623 21.1732C66.2174 21.1732 63.905 18.8244 63.905 15.9332C63.905 13.0404 66.2189 10.69 69.0623 10.69L69.0639 10.6932ZM14.4702 30.6404C22.4486 30.6404 28.9404 24.0436 28.9404 15.9364C28.9404 7.82442 22.4486 1.23242 14.4702 1.23242C6.49336 1.23242 0 7.82442 0 15.9364C0 24.0436 6.49336 30.6404 14.4702 30.6404ZM14.4702 10.6932C17.3151 10.6932 19.6291 13.0452 19.6291 15.9348C19.6291 18.8244 17.3151 21.1732 14.4702 21.1732C11.6269 21.1732 9.31449 18.8244 9.31449 15.9332C9.31449 13.0404 11.6285 10.69 14.4702 10.69V10.6932ZM41.7591 10.362L37.3166 1.42442H26.9149L36.6303 20.9764V30.1812H46.8894V20.9764L56.6049 1.42442H46.1984L41.7607 10.362H41.7591Z" fill="#EE2E24"/>
</g>
</svg>
