<svg width="40" height="40" viewBox="0 0 40 40" fill="none" xmlns="http://www.w3.org/2000/svg">
<g id="Icon">
<path id="Icon_2" fill-rule="evenodd" clip-rule="evenodd" d="M22.9784 6.34188C22.2204 3.21937 17.7796 3.21937 17.0216 6.34188C16.5319 8.35899 14.2209 9.31622 12.4483 8.23618C9.70436 6.56425 6.56425 9.70436 8.23618 12.4483C9.31622 14.2209 8.35899 16.5319 6.34188 17.0216C3.21937 17.7796 3.21937 22.2204 6.34188 22.9784C8.35899 23.4681 9.31622 25.7791 8.23618 27.5517C6.56425 30.2956 9.70436 33.4358 12.4483 31.7638C14.2209 30.6838 16.5319 31.641 17.0216 33.6581C17.7796 36.7806 22.2204 36.7806 22.9784 33.6581C23.4681 31.641 25.7791 30.6838 27.5517 31.7638C30.2956 33.4358 33.4358 30.2956 31.7638 27.5517C30.6838 25.7791 31.641 23.4681 33.6581 22.9784C36.7806 22.2204 36.7806 17.7796 33.6581 17.0216C31.641 16.5319 30.6838 14.2209 31.7638 12.4483C33.4358 9.70436 30.2956 6.56425 27.5517 8.23618C25.7791 9.31622 23.4681 8.35899 22.9784 6.34188ZM20 26C23.3137 26 26 23.3137 26 20C26 16.6863 23.3137 14 20 14C16.6863 14 14 16.6863 14 20C14 23.3137 16.6863 26 20 26Z" fill="white"/>
</g>
</svg>
